<?xml version="1.0" encoding="UTF-8"?>
<svg version="1.1" xmlns="http://www.w3.org/2000/svg" width="512" height="512">
<path d="M0 0 C32.42959492 28.3054162 52.65289472 65.68761869 60.5625 107.875 C60.93181641 109.81439453 60.93181641 109.81439453 61.30859375 111.79296875 C68.47594158 157.91114477 56.02875419 205.80800232 29.5625 243.875 C26.04055638 248.65777451 22.33321383 253.28705921 18.5625 257.875 C23.52444855 263.87000997 28.9101624 269.33927037 34.4375 274.8125 C35.75621094 276.12444336 35.75621094 276.12444336 37.1015625 277.46289062 C39.2529346 279.60257048 41.40661792 281.73986597 43.5625 283.875 C47.09682051 282.37209971 49.32985331 280.32736567 52.00390625 277.59375 C52.83470703 276.75199219 53.66550781 275.91023438 54.52148438 275.04296875 C55.38064453 274.16253906 56.23980469 273.28210938 57.125 272.375 C58.83237446 270.63319752 60.54191524 268.89351516 62.25390625 267.15625 C63.00873291 266.38345703 63.76355957 265.61066406 64.54125977 264.81445312 C67.7120025 261.77201077 69.90960989 260.52372778 74.25 260.3125 C75.46236328 260.21775391 75.46236328 260.21775391 76.69921875 260.12109375 C84.36796468 262.14028606 90.92828795 271.07786102 96.421875 276.54150391 C97.26850708 277.3799585 98.11513916 278.21841309 98.98742676 279.08227539 C101.76547266 281.83567358 104.53961306 284.5929717 107.3125 287.3515625 C108.27567228 288.3093637 109.23884775 289.26716168 110.20202637 290.22495651 C114.21232593 294.21367823 118.22120137 298.20382228 122.22637939 302.19768715 C127.92553653 307.88062681 133.63300557 313.55491235 139.35248947 319.21739638 C143.39728283 323.223273 147.43224256 327.23889251 151.46025467 331.26164186 C153.85535558 333.65312089 156.25430202 336.04038687 158.66394043 338.41722488 C174.25389719 353.8226126 186.95894137 367.40718608 188.0625 390.375 C187.320844 406.28471749 181.17030549 420.54993975 169.5703125 431.546875 C156.51164289 441.65462447 141.88155847 445.40222639 125.5625 443.875 C113.16470077 441.72278329 104.0143238 436.27280235 94.90283203 427.79248047 C94.3493062 427.27894957 93.79578037 426.76541866 93.22548103 426.23632622 C84.85964263 418.41293114 76.78676119 410.28460979 68.6796875 402.1953125 C67.80171635 401.32016872 66.92374519 400.44502495 66.01916885 399.54336166 C61.38998406 394.92904522 56.76358487 390.31195836 52.13964844 385.69238281 C47.84835418 381.40535109 43.54951752 377.12598047 39.24740875 372.84980404 C35.08098943 368.7076198 30.92285717 364.55719589 26.76767349 360.40374374 C25.0087017 358.64779467 23.24723374 356.89434231 21.48321152 355.14346695 C19.02578789 352.70308462 16.57798761 350.25342965 14.13232422 347.80126953 C13.40612381 347.08428391 12.6799234 346.36729828 11.93171692 345.62858582 C7.25946176 340.91731259 3.77168375 337.01275623 3.3125 330.125 C4.4337608 323.99852346 9.31438205 320.08245313 13.5625 315.875 C14.80027239 314.62578546 16.03720173 313.37573522 17.2734375 312.125 C20.68283697 308.68752363 24.1170592 305.27633131 27.5625 301.875 C22.60055145 295.87999003 17.2148376 290.41072963 11.6875 284.9375 C10.36878906 283.62555664 10.36878906 283.62555664 9.0234375 282.28710938 C6.8720654 280.14742952 4.71838208 278.01013403 2.5625 275.875 C-0.13902124 277.14819 -2.45383578 278.53582864 -4.80078125 280.37890625 C-5.74763794 281.11197998 -5.74763794 281.11197998 -6.71362305 281.85986328 C-7.72162964 282.64079346 -7.72162964 282.64079346 -8.75 283.4375 C-49.11249595 314.05858793 -98.47303239 325.66837347 -148.4375 318.875 C-186.97035819 312.9864361 -220.47771939 294.53340859 -248.4375 267.875 C-249.21738281 267.14796875 -249.99726563 266.4209375 -250.80078125 265.671875 C-284.30956785 233.53200863 -301.54618601 186.43593531 -302.72265625 140.64550781 C-303.22334978 95.63673574 -287.23721343 51.65481214 -257.4375 17.875 C-257.00050781 17.37774414 -256.56351562 16.88048828 -256.11328125 16.36816406 C-194.11644453 -53.83413634 -83.82682979 -64.48543899 0 0 Z M-216.4375 38.875 C-217.25992188 39.63296875 -218.08234375 40.3909375 -218.9296875 41.171875 C-243.95374339 65.02658248 -257.9655807 100.79834215 -258.79321289 135.03442383 C-259.03275604 169.53773431 -247.92635352 201.60906104 -225.4375 227.875 C-224.72851562 228.70644531 -224.01953125 229.53789062 -223.2890625 230.39453125 C-199.89942506 257.10795927 -166.02297289 274.49996956 -130.4375 276.875 C-91.59129564 278.83024374 -55.52870952 266.91290473 -26.4375 240.875 C-6.82508651 222.87634847 7.11088307 200.3522259 14.375 174.6875 C14.5699707 173.99994629 14.76494141 173.31239258 14.96582031 172.60400391 C24.73386849 135.83169556 17.45051963 98.30624673 -1.18359375 65.83203125 C-5.34408526 59.01958672 -10.25508525 52.93166558 -15.4375 46.875 C-16.08589844 46.09125 -16.73429688 45.3075 -17.40234375 44.5 C-22.49046003 38.50663604 -28.21866027 33.66333527 -34.4375 28.875 C-35.29085937 28.20597656 -36.14421875 27.53695312 -37.0234375 26.84765625 C-91.65690012 -14.57861796 -167.45372991 -7.43120066 -216.4375 38.875 Z " fill="#EA570B" transform="translate(313.4375,56.125)"/>
<path d="M0 0 C3.01289798 2.69833918 5.92740806 5.49073259 8.83984375 8.296875 C9.48566406 8.87953125 10.13148438 9.4621875 10.796875 10.0625 C30.27834847 28.12962762 41.59793965 57.66459525 42.96582031 83.6940918 C43.91383458 113.70954358 36.53133976 144.53622939 15.83984375 167.296875 C14.76089844 168.55177734 14.76089844 168.55177734 13.66015625 169.83203125 C-6.86265983 193.37290852 -35.30627102 207.70318902 -66.49682617 209.88696289 C-98.72715633 211.77777044 -128.50411785 202.26486732 -153.16015625 181.296875 C-153.89621094 180.70648438 -154.63226563 180.11609375 -155.390625 179.5078125 C-178.03333692 160.67228223 -190.93238213 130.91723815 -193.84765625 102.12890625 C-196.41566896 70.63865045 -187.1600869 39.90292877 -166.79150391 15.66845703 C-147.10698482 -7.18987165 -120.26957416 -22.99872672 -89.96484375 -26.45703125 C-57.44747321 -28.56031086 -25.2147755 -21.98487916 0 0 Z M-84.16015625 7.296875 C-85.77067557 10.51791365 -85.60928583 13.80438976 -85.16015625 17.296875 C-83.95512809 20.34547613 -83.95512809 20.34547613 -81.16015625 22.296875 C-76.69446478 23.80692325 -71.94410461 24.1956183 -67.2890625 24.796875 C-52.9014993 26.82754705 -39.89721349 32.2491619 -29.16015625 42.296875 C-28.41507813 42.98910156 -27.67 43.68132812 -26.90234375 44.39453125 C-16.73044364 54.72159594 -10.27665078 68.98617027 -8.6875 83.3515625 C-8.60806152 84.06505859 -8.52862305 84.77855469 -8.44677734 85.51367188 C-8.30107708 86.91671149 -8.17404631 88.32185931 -8.06884766 89.72851562 C-7.62651291 94.4049575 -6.45437571 96.95889931 -3.16015625 100.296875 C0.05678739 101.90534682 3.36121597 101.90996649 6.83984375 101.296875 C10.12780099 98.63852659 12.60862045 96.41958068 13.078125 92.109375 C13.44013094 78.39125506 9.96215073 64.54148896 3.83984375 52.296875 C3.34871094 51.31460938 2.85757813 50.33234375 2.3515625 49.3203125 C-2.06166687 41.16795086 -7.66133987 34.80471752 -14.16015625 28.296875 C-14.96453125 27.48089844 -15.76890625 26.66492188 -16.59765625 25.82421875 C-31.48333837 11.55061237 -52.22657813 3.620368 -72.72265625 2.859375 C-77.77368023 2.98871389 -80.44436997 3.88236869 -84.16015625 7.296875 Z " fill="#EA570B" transform="translate(269.16015625,102.703125)"/>
</svg>
