<?xml version="1.0" encoding="UTF-8"?>
<svg version="1.1" xmlns="http://www.w3.org/2000/svg" width="512" height="512">
<path d="M0 0 C0.82332825 -0.0065712 1.64665649 -0.0131424 2.49493408 -0.01991272 C5.21716409 -0.03960622 7.93933895 -0.0513013 10.66162109 -0.0612793 C12.06059694 -0.06739259 12.06059694 -0.06739259 13.48783493 -0.07362938 C18.42710904 -0.09447617 23.3663555 -0.10878229 28.30566406 -0.11816406 C33.38963133 -0.12920824 38.47315849 -0.16358915 43.5569706 -0.20333576 C47.48111749 -0.22957311 51.40516079 -0.23786234 55.32938766 -0.24144554 C57.20234515 -0.24629536 59.07529851 -0.2578632 60.94816971 -0.27648354 C72.0850346 -0.3803003 80.98628554 -0.22054068 90.62255859 5.98950195 C96.21263603 11.57957939 99.55322707 17.29489894 100.81005859 25.17700195 C100.69429813 37.45635801 98.96612645 49.77468603 97.60107422 61.96362305 C97.37563468 64.002086 97.15052098 66.04058501 96.92570496 68.07911682 C96.3197825 73.56406628 95.70907166 79.04847234 95.0972271 84.53276396 C94.45610193 90.28506469 93.81875143 96.03778392 93.18078613 101.79043579 C92.11091472 111.43196945 91.03782479 121.0731409 89.96289062 130.71411133 C88.71933564 141.86786988 87.48136151 153.02223764 86.24622011 164.17693079 C85.18404969 173.7681782 84.11889987 183.35909129 83.05123472 192.94972861 C82.41414051 198.67265395 81.77809027 204.39569015 81.14472961 210.11903 C80.55065283 215.48587079 79.95284855 220.85228326 79.35210609 226.21838188 C79.1318748 228.19117608 78.91296383 230.16411816 78.69544029 232.13721275 C78.39941596 234.82043076 78.09870935 237.50308251 77.79675293 240.18563843 C77.66790766 241.36866848 77.66790766 241.36866848 77.53645945 242.57559812 C76.9242101 247.94869893 76.9242101 247.94869893 75.81005859 250.17700195 C85.05005859 250.17700195 94.29005859 250.17700195 103.81005859 250.17700195 C103.93550552 247.74783417 104.06095245 245.31866638 104.19020081 242.81588745 C104.71701288 233.48958325 105.68072014 224.23478729 106.7277832 214.95483398 C106.92208211 213.20356103 107.11601533 211.45224748 107.30961609 209.70089722 C107.83018546 205.00302055 108.35639196 200.30579279 108.88417125 195.60872126 C109.32558827 191.67654584 109.76446982 187.74408888 110.20346552 183.81164253 C111.23823857 174.54378844 112.27794228 165.27649643 113.32055664 156.00952148 C114.39565337 146.45285714 115.46127109 136.8951676 116.52252573 127.3369571 C117.43645006 119.10922289 118.35667586 110.88220972 119.28189284 102.65573776 C119.8334554 97.75072201 120.38249064 92.84545582 120.92524529 87.93945694 C121.43427693 83.34039863 121.95112933 78.74228705 122.47410774 74.14479446 C122.66481285 72.45640239 122.85269968 70.76768931 123.03759766 69.07865143 C123.28983687 66.77848349 123.55210602 64.4796783 123.81700134 62.18093872 C123.96134582 60.89315081 124.10569029 59.60536289 124.25440884 58.2785511 C124.81005859 55.17700195 124.81005859 55.17700195 126.81005859 52.17700195 C143.48314849 61.95023038 157.84547463 72.84980564 171.81005859 86.17700195 C172.79039062 87.07805664 172.79039062 87.07805664 173.79052734 87.99731445 C196.43614907 109.40576445 212.28524229 140.28890177 220.74755859 169.86450195 C221.01785889 170.7997168 221.28815918 171.73493164 221.56665039 172.69848633 C226.45120356 190.85658451 227.22216091 208.71861808 226.99755859 227.42700195 C226.98246176 229.64834689 226.96878233 231.86970193 226.95654297 234.09106445 C226.9239861 239.45326969 226.87419565 244.81508609 226.81005859 250.17700195 C227.74128792 250.26502579 227.74128792 250.26502579 228.69132996 250.35482788 C229.50418961 250.43713654 230.31704926 250.51944519 231.15454102 250.60424805 C231.96098557 250.6835556 232.76743011 250.76286316 233.59831238 250.84457397 C238.56507483 251.59108404 242.2348993 255.06464961 245.16162109 258.98950195 C247.97396856 263.68349197 248.92461167 267.67516992 248.98706055 273.06225586 C248.99989578 274.03071442 249.01273102 274.99917297 249.0259552 275.99697876 C249.0370356 277.55948868 249.0370356 277.55948868 249.04833984 279.15356445 C249.05641159 280.23399017 249.06448334 281.31441589 249.07279968 282.42758179 C249.08662603 284.71562096 249.09735466 287.00368063 249.10522461 289.29174805 C249.11672786 291.621237 249.13715317 293.95069994 249.16674805 296.2800293 C249.2096203 299.65472237 249.22562302 303.02863213 249.23583984 306.40356445 C249.25334793 307.43309235 249.27085602 308.46262024 249.28889465 309.52334595 C249.26677311 316.98931026 248.22940884 324.37492844 243.05976868 330.12319946 C237.85701469 334.91457203 233.10717345 336.42594234 226.03268719 336.43427086 C225.36071876 336.43777693 224.68875033 336.44128301 223.99641922 336.44489533 C221.7405063 336.45421315 219.4848513 336.4492851 217.22892761 336.44442749 C215.59689079 336.44816356 213.96485576 336.45276491 212.33282357 336.45815814 C207.84452152 336.47040889 203.35629389 336.47012523 198.86797893 336.46776938 C194.02872939 336.46736174 189.18950388 336.47839533 184.3502655 336.48788452 C174.8679245 336.50450685 165.38560835 336.50999462 155.90325399 336.51110928 C148.19653434 336.51205916 140.4898229 336.51616647 132.78310585 336.52251053 C110.93950648 336.54012625 89.09592678 336.54934887 67.25232025 336.54784958 C66.07439881 336.54776967 64.89647736 336.54768976 63.68286133 336.54760742 C62.50350387 336.54752566 61.32414641 336.5474439 60.10905085 336.54735966 C40.99322066 336.54654665 21.87746925 336.56568719 2.76166185 336.59388416 C-16.86007602 336.62259933 -36.48177546 336.6364252 -56.10353488 336.6346966 C-67.12217102 336.63403223 -78.14072458 336.63954517 -89.15934181 336.6610527 C-98.54050912 336.6792465 -107.92155641 336.68362665 -117.3027337 336.67003386 C-122.08954842 336.66349513 -126.87613278 336.66341963 -131.66292572 336.68074036 C-136.04570442 336.69643614 -140.42806943 336.6936433 -144.81083783 336.67617209 C-146.39561344 336.67309448 -147.98041966 336.67676322 -149.56515918 336.68789224 C-159.36342635 336.75213974 -166.64199835 336.62387961 -174.00244141 329.42700195 C-178.99942757 322.00290822 -179.64862984 315.53785822 -179.62353516 306.80981445 C-179.62877701 305.73504852 -179.63401886 304.66028259 -179.63941956 303.552948 C-179.64581729 301.28880676 -179.64453206 299.02463219 -179.63598633 296.76049805 C-179.62748413 293.31929563 -179.65625891 289.87975922 -179.68798828 286.4387207 C-179.68960086 284.22908578 -179.68902168 282.01944795 -179.68603516 279.80981445 C-179.70288612 278.28434494 -179.70288612 278.28434494 -179.72007751 276.72805786 C-179.64872079 269.31576848 -178.56346669 261.94556671 -173.44944763 256.23269653 C-168.32722643 251.53700854 -164.11633663 250.08198967 -157.18994141 250.17700195 C-157.19660324 249.62006653 -157.20326508 249.0631311 -157.21012878 248.48931885 C-157.27758429 242.58221337 -157.32218748 236.67522071 -157.35473633 230.76782227 C-157.36963 228.57637067 -157.38995172 226.38494781 -157.41625977 224.19360352 C-157.62772967 206.09841426 -156.51085617 188.65566899 -151.50244141 171.17700195 C-151.2475293 170.27167725 -150.99261719 169.36635254 -150.72998047 168.43359375 C-137.76596637 123.90754892 -109.62014729 86.56642397 -71.31494141 60.73950195 C-70.72084473 60.33836182 -70.12674805 59.93722168 -69.51464844 59.52392578 C-65.23094874 56.70250208 -60.80969808 54.4056538 -56.18994141 52.17700195 C-54.39584365 62.02480321 -53.23041395 71.91763293 -52.12695312 81.85986328 C-51.92988259 83.61382999 -51.73253803 85.36776593 -51.53494263 87.12167358 C-51.00309913 91.85028266 -50.47534293 96.57933929 -49.94857168 101.30851579 C-49.50744891 105.26525391 -49.06427593 109.22176132 -48.62110531 113.17827052 C-47.57586279 122.51012375 -46.53391675 131.8423409 -45.49414062 141.17480469 C-44.42256029 150.79227337 -43.3457937 160.40915125 -42.26642787 170.02574903 C-41.33788529 178.30002768 -40.41234683 186.57463848 -39.48925984 194.84952754 C-38.93874265 199.7844077 -38.38714147 204.71916027 -37.83272934 209.65360451 C-37.31214214 214.2883242 -36.79532246 218.9234489 -36.28138351 223.55891037 C-36.09244681 225.25737857 -35.9022002 226.95570165 -35.71053314 228.65386391 C-35.44869223 230.97567296 -35.19164121 233.29796524 -34.9357605 235.62043762 C-34.79087126 236.9184068 -34.64598202 238.21637598 -34.49670219 239.55367756 C-34.19784626 243.08363333 -34.18994141 246.63441778 -34.18994141 250.17700195 C-24.94994141 250.17700195 -15.70994141 250.17700195 -6.18994141 250.17700195 C-6.51994141 249.51700195 -6.84994141 248.85700195 -7.18994141 248.17700195 C-7.57680656 245.39618498 -7.91522316 242.62482649 -8.22132874 239.83482361 C-8.32018842 238.96150109 -8.4190481 238.08817858 -8.52090353 237.18839175 C-8.85313801 234.24481005 -9.17984723 231.30064109 -9.5065918 228.35644531 C-9.74287361 226.2525178 -9.97947893 224.14862661 -10.21638489 222.04476929 C-10.86045684 216.31553238 -11.49960658 210.58575618 -12.13763356 204.85584331 C-12.67045871 200.07464369 -13.20564032 195.29370907 -13.74082083 190.51277262 C-15.0038008 179.229769 -16.2627945 167.94632542 -17.51928711 156.66259766 C-18.81534019 145.02418651 -20.11778974 133.38650404 -21.4234696 121.74916929 C-22.54386232 111.76136235 -23.66039637 101.77312925 -24.77382082 91.7845431 C-25.43898086 85.81763841 -26.1055671 79.85090204 -26.77580452 73.88456535 C-27.4065196 68.26843108 -28.03239885 62.65177834 -28.65460014 57.03469467 C-28.88346592 54.97581942 -29.11401369 52.91713032 -29.34638977 50.8586483 C-29.66404565 48.04227724 -29.97553803 45.22528838 -30.28553772 42.4080658 C-30.37823836 41.59909172 -30.470939 40.79011765 -30.56644875 39.95662922 C-31.77758054 28.78275112 -31.76655664 18.60978192 -24.50244141 9.30200195 C-17.59265705 1.98782818 -9.69515432 0.03367818 0 0 Z " fill="#EA570B" transform="translate(221.18994140625,87.822998046875)"/>
</svg>
