<?xml version="1.0" encoding="UTF-8"?>
<svg version="1.1" xmlns="http://www.w3.org/2000/svg" width="512" height="512">
<path d="M0 0 C66.99 0 133.98 0 203 0 C203 83.85786802 203 83.85786802 186 105 C187.39347376 108.15204981 189.02485079 110.26171773 191.4765625 112.671875 C192.48203125 113.66767578 192.48203125 113.66767578 193.5078125 114.68359375 C194.20648438 115.36550781 194.90515625 116.04742187 195.625 116.75 C196.33140625 117.44738281 197.0378125 118.14476562 197.765625 118.86328125 C199.50598703 120.58012488 201.25084981 122.29211832 203 124 C204.04285156 123.67644531 205.08570313 123.35289062 206.16015625 123.01953125 C213.87553966 120.970991 221.94731729 120.93280874 229 125 C235.64570879 129.60931729 239.8409095 134.63920644 241.5625 142.6015625 C242.58158599 150.13855267 241.81861821 156.88921929 237.44921875 163.26171875 C233.36964354 168.15539987 229.11918951 171.96027016 223 174 C212.75170627 174.74157286 205.35795114 174.48572654 197.3125 167.75 C191.45002678 160.77841023 188.865849 155.35875419 188.796875 146.16796875 C189.02268936 143.75783475 189.75263665 141.83726323 190.5625 139.5625 C191.23805111 137.30791901 191.23805111 137.30791901 191 135 C189.10692429 132.33331162 186.98643386 130.37092748 184.52734375 128.21875 C181.48632988 125.54905003 179.04254327 122.57445579 176.5078125 119.43359375 C174.98439933 117.65547727 174.98439933 117.65547727 172 118 C170.26289284 119.01477472 168.55930492 120.0873064 166.875 121.1875 C161.84175855 124.19889325 156.99942582 126.22719457 151.375 127.875 C150.69550293 128.07762451 150.01600586 128.28024902 149.31591797 128.48901367 C140.34267524 130.97419218 131.21728298 131.14770401 121.9609375 131.09765625 C120.95406891 131.0962413 119.94720032 131.09482635 118.90982056 131.09336853 C115.73151527 131.08782431 112.55328356 131.07528259 109.375 131.0625 C107.20442811 131.05747778 105.0338551 131.05291614 102.86328125 131.04882812 C97.57549624 131.03787323 92.28775338 131.02119176 87 131 C86.82476807 129.87070068 86.64953613 128.74140137 86.46899414 127.57788086 C84.72259991 116.18404082 84.72259991 116.18404082 80.4375 105.5625 C80.09380371 104.90910645 79.75010742 104.25571289 79.39599609 103.58251953 C72.87193233 91.80546461 62.5625191 84.18196899 50.0625 79.625 C37.09899094 75.95405371 22.6277119 76.5263716 10.625 82.75 C7.65716428 84.16325511 6.99527786 83.94319388 4 83 C3.51526322 81.31409158 3.03751074 79.62617455 2.5625 77.9375 C2.16224609 76.52791016 2.16224609 76.52791016 1.75390625 75.08984375 C-4.18083591 50.7666259 0 25.03677478 0 0 Z " fill="#EA570B" transform="translate(39,323)"/>
<path d="M0 0 C3.21693815 2.96418818 5.33784972 5.96277592 7.51171875 9.75 C7.83727249 10.31205643 8.16282623 10.87411285 8.49824524 11.45320129 C9.20010181 12.6659054 9.89925158 13.88017935 10.59594727 15.09585571 C12.4712402 18.36718491 14.36691082 21.62666625 16.26171875 24.88671875 C16.8464949 25.89420418 16.8464949 25.89420418 17.44308472 26.92204285 C21.53023622 33.94583975 25.75903458 40.88090837 30 47.8125 C34.82165216 55.70251308 39.57029418 63.61587203 44.04858398 71.70703125 C46.64938729 76.4044454 49.37282592 81.01761599 52.15014648 85.61157227 C55.99166769 91.96892274 59.77857697 98.35824268 63.5625 104.75 C64.25592972 105.92098635 64.94937057 107.09196611 65.64282227 108.26293945 C67.05777642 110.65241227 68.47253972 113.04199798 69.88720703 115.43164062 C72.59576058 120.00661203 75.3063458 124.58037896 78.01708984 129.15405273 C79.3393155 131.38516608 80.6612555 133.61644875 81.98291016 135.84790039 C85.04415654 141.01596039 88.10744172 146.18276945 91.1794281 151.3444519 C104.14627421 173.13201804 104.14627421 173.13201804 109.4375 182.5 C109.79706787 183.13446045 110.15663574 183.7689209 110.52709961 184.42260742 C114.95810676 192.35019164 115.41993689 201.92677595 113.3515625 210.7734375 C110.1851082 218.4865954 104.26623135 224.98038266 97 229 C88.97275705 232.17383055 79.78456321 232.46719413 71.53515625 229.9375 C60.66442607 224.8928232 55.28142988 216.35850821 49.5625 206.1875 C48.33307344 204.04106939 47.10256341 201.89525908 45.87109375 199.75 C45.23671387 198.64011719 44.60233398 197.53023437 43.94873047 196.38671875 C40.72757176 190.78863385 37.42578899 185.238882 34.125 179.6875 C32.77337475 177.41019349 31.42181263 175.13284951 30.0703125 172.85546875 C29.39774414 171.72286621 28.72517578 170.59026367 28.03222656 169.42333984 C24.68466904 163.78428992 21.3425762 158.14200354 18 152.5 C16.67060419 150.25649189 15.34117707 148.01300233 14.01171875 145.76953125 C13.35220215 144.65658691 12.69268555 143.54364258 12.01318359 142.39697266 C10.31663021 139.53427029 8.61988791 136.67168012 6.92300415 133.80917358 C-0.08379219 121.98924603 -7.08600739 110.16666387 -14.07373047 98.33544922 C-17.64220472 92.29472726 -21.21558395 86.25693026 -24.79248047 80.22119141 C-26.13438005 77.95679668 -27.47585451 75.69214998 -28.81689453 73.42724609 C-31.99379268 68.06340286 -35.17509245 62.70236372 -38.37266541 57.35081482 C-39.85266997 54.87317414 -41.33005081 52.39397397 -42.80722046 49.91464233 C-43.51230711 48.73288817 -44.2186831 47.55190222 -44.92642212 46.37173462 C-45.90992859 44.73153913 -46.88865711 43.08848154 -47.8671875 41.4453125 C-48.42519043 40.51219238 -48.98319336 39.57907227 -49.55810547 38.61767578 C-50.92926976 36.12840663 -52.00929196 33.6605353 -53 31 C-52.13503906 30.52433594 -51.27007812 30.04867187 -50.37890625 29.55859375 C-40.50126945 24.08323886 -30.80232931 18.33186945 -21.13500977 12.49389648 C-14.1274961 8.26342002 -7.08175496 4.10502262 0 0 Z " fill="#EA570B" transform="translate(383,132)"/>
<path d="M0 0 C0.99289866 -0.00467997 1.98579732 -0.00935994 3.00878382 -0.01418173 C6.34530539 -0.02617496 9.68141951 -0.01665743 13.01794434 -0.00723267 C15.40610494 -0.01129643 17.79426367 -0.01663721 20.18241882 -0.02316284 C26.00126666 -0.03544136 31.8199844 -0.03361789 37.63883626 -0.02492492 C42.36745429 -0.01815283 47.09603977 -0.01722959 51.82466125 -0.02049637 C52.49737718 -0.02095607 53.17009311 -0.02141577 53.86319438 -0.0218894 C55.22975633 -0.02284856 56.59631826 -0.0238212 57.96288019 -0.02480717 C70.7804973 -0.03336409 83.59805007 -0.02352222 96.41565663 -0.00740607 C107.41641887 0.0059974 118.41708615 0.00366939 129.41784668 -0.01016235 C142.18924635 -0.02621286 154.96058962 -0.03254009 167.73199797 -0.02332556 C169.09356402 -0.0223699 170.45513009 -0.02142679 171.81669617 -0.02049637 C172.48663216 -0.02003354 173.15656816 -0.01957072 173.84680524 -0.01909386 C178.57035402 -0.01650238 183.29386704 -0.02087837 188.01741028 -0.02793503 C194.3736302 -0.03658399 200.7296703 -0.03062056 207.08587074 -0.01325226 C209.42239902 -0.00927635 211.75894237 -0.01044022 214.09546471 -0.01704025 C217.27763512 -0.02520207 220.45922434 -0.01499881 223.64135742 0 C225.03803831 -0.01003825 225.03803831 -0.01003825 226.46293497 -0.02027929 C230.07585699 0.01289678 232.6306451 0.03768806 235.8952713 1.66170311 C238.39357861 4.67502363 237.84611396 8.40386358 237.78161621 12.13485718 C237.78069977 12.99151474 237.77978333 13.8481723 237.77883911 14.73078918 C237.77279963 16.54058375 237.75704311 18.35036817 237.7322998 20.16000366 C237.69577017 22.93649939 237.69128053 25.71166179 237.69177246 28.4883728 C237.68194226 30.24554584 237.67028568 32.00270981 237.65661621 33.75985718 C237.65439056 34.59320084 237.65216492 35.42654449 237.64987183 36.28514099 C237.55282774 42.1488019 237.55282774 42.1488019 235.32067871 44.38095093 C233.49081182 44.63164926 233.49081182 44.63164926 231.22267914 44.63263321 C229.92795803 44.64045645 229.92795803 44.64045645 228.60708094 44.64843774 C227.65320663 44.64397629 226.69933232 44.63951485 225.71655273 44.63491821 C224.20315001 44.63959818 224.20315001 44.63959818 222.65917349 44.6443727 C219.25657005 44.6523911 215.85414306 44.64601412 212.45153809 44.63973999 C210.02102046 44.64244815 207.59050365 44.64600809 205.1599884 44.65036011 C199.2306044 44.65855596 193.30126673 44.65732476 187.37188399 44.65153483 C182.55453362 44.64702483 177.73719745 44.64640255 172.91984558 44.64858246 C172.23517978 44.64888892 171.55051398 44.64919539 170.84510073 44.64951114 C169.45437626 44.65015057 168.06365179 44.650799 166.67292732 44.65145633 C153.62076237 44.65716447 140.56862548 44.65059415 127.51646513 44.63985559 C116.30812253 44.63091964 105.09982135 44.63247155 93.89147949 44.64169312 C80.8871977 44.65238721 67.88294053 44.6566151 54.87865496 44.65046859 C53.49294059 44.64983146 52.10722622 44.64920272 50.72151184 44.64858246 C50.039648 44.64827391 49.35778417 44.64796536 48.65525779 44.64764746 C43.84163295 44.64591793 39.02802368 44.64884115 34.21440125 44.65354156 C27.74006645 44.65972444 21.26579165 44.65534583 14.79146385 44.64375305 C12.40894387 44.64109838 10.02641733 44.64188521 7.64389992 44.64627838 C4.40411087 44.65170352 1.16457724 44.64493673 -2.07519531 44.63491821 C-3.50600677 44.64161038 -3.50600677 44.64161038 -4.96572351 44.64843774 C-5.82887092 44.64322224 -6.69201833 44.63800675 -7.58132172 44.63263321 C-8.3298055 44.6323085 -9.07828929 44.6319838 -9.8494544 44.63164926 C-11.67932129 44.38095093 -11.67932129 44.38095093 -13.67932129 42.38095093 C-13.90385873 39.47536099 -14.00749211 36.66791691 -14.01525879 33.75985718 C-14.02191559 32.90415634 -14.02857239 32.04845551 -14.03543091 31.16682434 C-14.04556501 29.35532789 -14.05024769 27.54379405 -14.04992676 25.73226929 C-14.05429893 22.95763763 -14.09060611 20.18459768 -14.12854004 17.4102478 C-14.13440821 15.65178971 -14.1383776 13.89332405 -14.14025879 12.13485718 C-14.15462982 11.30353775 -14.16900085 10.47221832 -14.18380737 9.6157074 C-14.13865325 3.93497181 -14.13865325 3.93497181 -12.25391388 1.66170311 C-8.25544061 -0.32737018 -4.40703502 -0.03167431 0 0 Z " fill="#E9580C" transform="translate(28.6793212890625,265.6190490722656)"/>
<path d="M0 0 C12.54447196 -0.59086281 24.53948331 4.0530874 34.28125 11.7734375 C36.73573518 14.1081917 38.8253438 16.49385224 40.84375 19.2109375 C41.524375 18.9221875 42.205 18.6334375 42.90625 18.3359375 C50.89529198 15.2763044 57.73409422 13.80266954 65.8046875 17.18359375 C77.04120856 22.84490609 82.70361341 32.4649228 86.84375 44.02734375 C88.91021656 50.60613378 89.84375 56.29585102 89.84375 63.2109375 C29.45375 63.2109375 -30.93625 63.2109375 -93.15625 63.2109375 C-91.84535936 51.41292176 -88.39719061 42.26748634 -79.0546875 34.453125 C-68.26109666 26.86328551 -56.63697019 23.88031011 -43.59375 25.7109375 C-42.789375 25.8759375 -41.985 26.0409375 -41.15625 26.2109375 C-40.74375 25.6540625 -40.33125 25.0971875 -39.90625 24.5234375 C-30.64809718 12.28944985 -20.20903567 2.72615781 -4.4375 0.421875 C-2.95797518 0.28506962 -1.47877721 0.14466299 0 0 Z " fill="#EA570B" transform="translate(139.15625,189.7890625)"/>
<path d="M0 0 C1.52172852 1.27758789 1.52172852 1.27758789 2.81640625 3.16015625 C3.32187988 3.89508301 3.82735352 4.63000977 4.34814453 5.38720703 C7.29726737 10.05192956 10.10862533 14.79094755 12.86300659 19.57229614 C14.71119576 22.78055181 16.57527401 25.97956608 18.4375 29.1796875 C19.00409584 30.15480034 19.00409584 30.15480034 19.58213806 31.14961243 C24.08859567 38.89358619 28.7166876 46.56364172 33.35327148 54.23022461 C33.93665283 55.19710205 34.52003418 56.16397949 35.12109375 57.16015625 C35.6308374 58.00199463 36.14058105 58.84383301 36.66577148 59.71118164 C37.10606689 60.4664917 37.5463623 61.22180176 38 62 C38.41000244 62.65669678 38.82000488 63.31339355 39.24243164 63.98999023 C40.27822024 66.73818474 39.9695358 68.25058253 39 71 C37.43017578 72.50854492 37.43017578 72.50854492 35.3203125 73.79296875 C34.5046582 74.29747559 33.68900391 74.80198242 32.84863281 75.32177734 C31.90858398 75.87559082 30.96853516 76.4294043 30 77 C28.40816895 77.95253662 28.40816895 77.95253662 26.78417969 78.92431641 C23.79538575 80.70292809 20.792728 82.45677958 17.78509521 84.20330811 C14.54105332 86.08712256 11.30209767 87.97965036 8.0625 89.87109375 C7.43487762 90.23720764 6.80725525 90.60332153 6.16061401 90.98052979 C1.71110152 93.57804858 -2.7162704 96.20903609 -7.125 98.875 C-8.21941406 99.52984375 -9.31382812 100.1846875 -10.44140625 100.859375 C-12.41906859 102.04332862 -14.38815402 103.23893842 -16.35107422 104.44726562 C-18.91252341 106.02188281 -21.48650913 107.57431323 -24.0625 109.125 C-24.86123535 109.62370605 -25.6599707 110.12241211 -26.48291016 110.63623047 C-27.24265137 111.08885254 -28.00239258 111.54147461 -28.78515625 112.0078125 C-29.45426025 112.41660645 -30.12336426 112.82540039 -30.81274414 113.24658203 C-33.9843042 114.33905154 -35.8253233 114.04842879 -39 113 C-41.06567383 110.51342773 -41.06567383 110.51342773 -42.89453125 107.24609375 C-43.22943069 106.66315048 -43.56433014 106.08020721 -43.90937805 105.479599 C-44.60872027 104.26109703 -45.30017132 103.0380345 -45.98394775 101.81072998 C-47.53955584 99.03844517 -49.18691981 96.3222734 -50.82421875 93.59765625 C-52.80528872 90.25189421 -54.78147969 86.90327898 -56.75610352 83.55371094 C-57.45710524 82.36518201 -58.15819592 81.17670555 -58.859375 79.98828125 C-59.20491928 79.40239227 -59.55046356 78.8165033 -59.90647888 78.21286011 C-62.20411296 74.3248465 -64.53778751 70.46043765 -66.890625 66.60546875 C-67.79035034 65.1193811 -67.79035034 65.1193811 -68.70825195 63.60327148 C-69.83022104 61.75201458 -70.96107005 59.90609937 -72.10229492 58.06665039 C-74.98819526 53.27877427 -76.70416809 49.61322077 -77 44 C-70.90072147 39.07272147 -64.32077154 35.10290225 -57.5430603 31.19494629 C-54.99437097 29.72533051 -52.45221634 28.24456708 -49.90950012 26.76464844 C-48.59048847 25.99714628 -47.27113991 25.23022283 -45.95146179 24.46386719 C-39.59176191 20.76966309 -33.25709677 17.03382306 -26.93057251 13.28314209 C-25.2319619 12.27635315 -23.53237561 11.27121091 -21.83276367 10.26611328 C-20.78838135 9.64720215 -19.74399902 9.02829102 -18.66796875 8.390625 C-17.69005371 7.81248047 -16.71213867 7.23433594 -15.70458984 6.63867188 C-12.67239769 4.8015105 -9.72246438 2.85987291 -6.80981445 0.83886719 C-4.36108976 -0.29614132 -2.66680156 -0.35364569 0 0 Z " fill="#EA570B" transform="translate(348,44)"/>
<path d="M0 0 C7.65387673 6.27083535 12.90145886 12.78994169 15.8125 22.3125 C16.09867188 23.24642578 16.09867188 23.24642578 16.390625 24.19921875 C18.57297842 35.13119283 16.62181448 45.69447438 11.1171875 55.2578125 C4.92636622 64.45632024 -3.21821325 70.98290231 -14.1875 73.3125 C-25.40710622 75.32931743 -35.72440225 74.01146734 -45.58203125 68.13671875 C-54.96714586 61.56573146 -61.53015445 52.832148 -63.90625 41.5 C-65.5832454 28.45670245 -62.78076529 17.98265714 -55.1875 7.3125 C-42.34026718 -9.32301942 -16.80250483 -11.64497922 0 0 Z M-38.125 22.375 C-41.86803733 27.70599256 -41.83188499 32.98663609 -41.1875 39.3125 C-38.83215564 44.20436906 -35.4701542 47.12328942 -31.1875 50.3125 C-26.0582896 52.0222368 -21.12602784 51.95867595 -16 50.25 C-10.93912909 46.76362226 -7.33751511 42.94706222 -5.625 36.9375 C-4.79890698 31.88628537 -5.65840875 27.75301664 -8.1875 23.3125 C-12.45160024 18.40930857 -17.02290933 15.67075555 -23.5 14.9375 C-29.51294896 15.54898634 -34.14427484 17.774796 -38.125 22.375 Z " fill="#EA570B" transform="translate(96.1875,419.6875)"/>
<path d="M0 0 C1 1 1 1 1.42578125 4.2265625 C0.96036446 8.35126542 0.11360956 9.50689949 -3.06347656 12.06884766 C-3.6406543 12.49987793 -4.21783203 12.9309082 -4.8125 13.375 C-5.69566895 14.07761963 -5.69566895 14.07761963 -6.59667969 14.79443359 C-8.38459951 16.21408237 -10.19133467 17.60694073 -12 19 C-18.29855678 24.02570632 -24.26645469 29.10673138 -29.88671875 34.88671875 C-31.85139885 36.85139885 -33.87597731 38.64862882 -36 40.4375 C-40.7883203 44.55261091 -44.84116975 49.26414085 -49 54 C-51.34840104 56.59403411 -53.70133006 59.18390082 -56.0546875 61.7734375 C-57.81270367 63.78562469 -59.43091757 65.838811 -61 68 C-64.92422295 66.69192568 -65.29261805 65.2371064 -67.29296875 61.671875 C-67.92001709 60.56714844 -68.54706543 59.46242187 -69.19311523 58.32421875 C-69.85803163 57.13288029 -70.52282453 55.9414729 -71.1875 54.75 C-72.53279804 52.36771235 -73.88380717 49.98867793 -75.234375 47.609375 C-75.88212891 46.46533203 -76.52988281 45.32128906 -77.19726562 44.14257812 C-79.92683855 39.38430854 -82.82107956 34.74455508 -85.77734375 30.125 C-87 28 -87 28 -87 26 C-63.89128403 16.60888507 -40.57650184 8.13824349 -16.5625 1.3125 C-15.6873877 1.05621826 -14.81227539 0.79993652 -13.91064453 0.53588867 C-8.85060531 -0.84243919 -5.12851838 -1.22300636 0 0 Z " fill="#EA570B" transform="translate(453,21)"/>
<path d="M0 0 C3.02551573 2.65209675 4.87861701 5.91458652 6.87109375 9.35546875 C7.23469498 9.97593582 7.5982962 10.59640289 7.97291565 11.235672 C8.74073706 12.54816322 9.50630871 13.86197284 10.26977539 15.17700195 C11.4250921 17.16613704 12.58788434 19.15074247 13.75195312 21.13476562 C17.37261786 27.32729235 20.91215974 33.51965256 24 40 C22.86461792 40.23952393 22.86461792 40.23952393 21.70629883 40.48388672 C-2.65033852 45.6996367 -26.51779147 52.23459879 -48.92626953 63.39599609 C-54.34426482 66.03084776 -54.34426482 66.03084776 -57.90625 65.86328125 C-60 65 -60 65 -62 63 C-62.5625 60.3125 -62.5625 60.3125 -62 57 C-60.47761843 55.07675464 -58.79872759 53.49818593 -56.98828125 51.84375 C-55.03863756 50.03582894 -53.3425974 48.15232808 -51.625 46.125 C-45.95790066 39.57043544 -39.79399625 33.57342536 -33.21875 27.9375 C-31.01578209 26.01378154 -28.86638869 24.03862963 -26.72290039 22.04907227 C-18.2295001 14.17150765 -9.3566473 6.8365188 0 0 Z " fill="#EA570B" transform="translate(264,107)"/>
<path d="M0 0 C6.28088597 4.01976702 10.64808721 10.39609595 14 17 C13.91870117 18.96777344 13.91870117 18.96777344 13 21 C10.73779297 22.68823242 10.73779297 22.68823242 7.7421875 24.35546875 C6.64841797 24.97365479 5.55464844 25.59184082 4.42773438 26.22875977 C3.24354307 26.88177018 2.05929724 27.53468173 0.875 28.1875 C-0.32308771 28.86043625 -1.52035286 29.53483903 -2.71679688 30.21069336 C-5.07478142 31.54219659 -7.4353757 32.86886745 -9.79785156 34.19238281 C-13.73931723 36.41734559 -17.63001096 38.71602616 -21.5 41.0625 C-23.19382812 42.08150391 -23.19382812 42.08150391 -24.921875 43.12109375 C-26.96348223 44.36730324 -28.99497891 45.63023923 -31.015625 46.91015625 C-31.91796875 47.47605469 -32.8203125 48.04195312 -33.75 48.625 C-34.88695312 49.35589844 -34.88695312 49.35589844 -36.046875 50.1015625 C-38 51 -38 51 -41 50 C-42.34324061 47.75931043 -43.50371465 45.5970973 -44.625 43.25 C-44.93695313 42.62867188 -45.24890625 42.00734375 -45.5703125 41.3671875 C-49.81056424 32.70391455 -50.04200859 24.5936231 -47.03125 15.51953125 C-43.70212627 7.38587669 -38.85159645 1.99122819 -31 -2 C-20.97973291 -6.02748304 -9.37143598 -5.33232936 0 0 Z " fill="#EA570B" transform="translate(314,19)"/>
<path d="M0 0 C2.5625 0.375 2.5625 0.375 4.5 2.0625 C5.5625 4.375 5.5625 4.375 4.8125 7.0625 C3.5625 9.375 3.5625 9.375 2.5625 10.375 C0.125 10.5625 0.125 10.5625 -2.4375 10.375 C-4.4375 8.375 -4.4375 8.375 -4.6875 5.375 C-4.37594563 1.63634762 -3.76270131 0.57887713 0 0 Z " fill="#EB580B" transform="translate(72.4375,447.625)"/>
</svg>
