<?xml version="1.0" encoding="UTF-8"?>
<svg version="1.1" xmlns="http://www.w3.org/2000/svg" width="512" height="512">
<path d="M0 0 C4.94664556 2.07063831 9.36641257 4.82212855 13.875 7.6875 C15.15340577 8.47237711 16.43346239 9.25457116 17.71508789 10.03417969 C20.28513934 11.60153431 22.84674052 13.18136686 25.40185547 14.77294922 C30.36101627 17.8548625 35.39912098 20.80005393 40.4375 23.75 C42.20499799 24.79460753 43.97192988 25.84017354 45.73828125 26.88671875 C50.26935781 29.56882511 54.8041934 32.24450823 59.34008789 34.91845703 C62.08583448 36.53937906 64.82819877 38.16591054 67.5703125 39.79296875 C71.23814015 41.96730573 74.9216624 44.11139272 78.6171875 46.23828125 C80.41153076 47.28372987 82.20580436 48.32929806 84 49.375 C85.22807373 50.0702478 85.22807373 50.0702478 86.48095703 50.77954102 C91.55445155 53.75829324 95.90200253 56.89451145 99 62 C99.796875 65.28125 99.796875 65.28125 99.75 68.5 C99.76546875 69.5621875 99.7809375 70.624375 99.796875 71.71875 C98.42180582 77.38079955 95.21371099 80.49146308 90.45703125 83.73291016 C87.38382342 85.5850481 84.26984444 87.33484526 81.125 89.0625 C79.37179716 90.04918339 77.61860609 91.03588899 75.86636353 92.02427673 C74.07509539 93.032956 72.28085301 94.03619121 70.48632812 95.0390625 C65.24679353 97.98611725 60.06055512 101.02178716 54.875 104.0625 C52.8998877 105.2163994 50.9246271 106.37004499 48.94921875 107.5234375 C47.97259277 108.09416992 46.9959668 108.66490234 45.98974609 109.25292969 C42.93756814 111.03648231 39.88491975 112.8192264 36.83203125 114.6015625 C35.81415527 115.19622314 34.7962793 115.79088379 33.74755859 116.40356445 C31.72512699 117.58259012 29.70074185 118.75827187 27.67431641 119.93041992 C22.96521489 122.65790728 18.29499296 125.42163878 13.69140625 128.32421875 C-1.1268769 137.55688352 -1.1268769 137.55688352 -9.609375 136.6328125 C-14.18177111 135.42247235 -16.85169926 133.55834687 -19.6340332 129.7824707 C-21.31516488 126.35800999 -21.34324609 123.97228775 -21.29296875 120.16796875 C-21.28330078 118.87568359 -21.27363281 117.58339844 -21.26367188 116.25195312 C-21.23860985 114.8971293 -21.21321506 113.54231159 -21.1875 112.1875 C-21.17244013 110.81316555 -21.15875401 109.43881532 -21.14648438 108.06445312 C-21.11116628 104.70923368 -21.06183851 101.35481834 -21 98 C-47.74860181 108.28670266 -70.37152886 119.82427994 -91 140 C-91.78503906 140.72316406 -92.57007813 141.44632813 -93.37890625 142.19140625 C-109.53940866 157.4267994 -119.39516308 177.31924424 -129 197 C-132 196 -132 196 -134.1875 193.75 C-143.17413047 184.96307243 -153.4095403 182.51089438 -165.66723633 182.57397461 C-173.68864983 182.83169429 -180.18077938 185.27353514 -187.0625 189.3125 C-188.031875 189.869375 -189.00125 190.42625 -190 191 C-190.66 190.67 -191.32 190.34 -192 190 C-181.14517788 155.79202183 -163.81537876 125.87005146 -139 100 C-138.41621582 99.38366699 -137.83243164 98.76733398 -137.23095703 98.13232422 C-118.26992932 78.19792771 -96.04539957 62.43557737 -71 51 C-69.93458984 50.5057251 -69.93458984 50.5057251 -68.84765625 50.00146484 C-53.87774086 43.12490661 -37.46548643 36.81672266 -21 35 C-21.02094727 34.24380371 -21.04189453 33.48760742 -21.06347656 32.70849609 C-21.14690585 29.264134 -21.19874624 25.81998493 -21.25 22.375 C-21.28351563 21.18519531 -21.31703125 19.99539062 -21.3515625 18.76953125 C-21.47655017 7.5831347 -21.47655017 7.5831347 -17 3 C-11.4396291 -0.875285 -6.5967697 -1.13846549 0 0 Z " fill="#EA570B" transform="translate(232,0)"/>
<path d="M0 0 C21.52109257 9.85262519 40.00290755 24.69595923 57 41 C57.82371094 41.78246094 58.64742188 42.56492188 59.49609375 43.37109375 C75.30737316 58.74393213 87.98246085 77.44014502 98 97 C98.57959473 98.1144751 98.57959473 98.1144751 99.17089844 99.25146484 C107.39084196 115.19870648 118 136.77101974 118 155 C118.75619629 154.97905273 119.51239258 154.95810547 120.29150391 154.93652344 C123.735866 154.85309415 127.18001507 154.80125376 130.625 154.75 C131.81480469 154.71648437 133.00460937 154.68296875 134.23046875 154.6484375 C145.4168653 154.52344983 145.4168653 154.52344983 150 159 C153.875285 164.5603709 154.13846549 169.4032303 153 176 C150.92936169 180.94664556 148.17787145 185.36641257 145.3125 189.875 C144.52762289 191.15340577 143.74542884 192.43346239 142.96582031 193.71508789 C141.39846569 196.28513934 139.81863314 198.84674052 138.22705078 201.40185547 C135.1451375 206.36101627 132.19994607 211.39912098 129.25 216.4375 C128.20539247 218.20499799 127.15982646 219.97192988 126.11328125 221.73828125 C123.43109721 226.26948904 120.75549518 230.80455063 118.08105469 235.34033203 C115.92926081 238.98610758 113.77091306 242.62798633 111.61279297 246.27001953 C109.96471889 249.05972047 108.32777884 251.85576607 106.69140625 254.65234375 C105.62790266 256.45590521 104.56411179 258.25929731 103.5 260.0625 C103.01974365 260.88959473 102.5394873 261.71668945 102.04467773 262.56884766 C95.82409081 273.0586364 95.82409081 273.0586364 90 275 C87.328125 275.30859375 87.328125 275.30859375 84.25 275.4375 C83.24453125 275.49808594 82.2390625 275.55867188 81.203125 275.62109375 C75.52726948 274.52053152 72.46147867 271.14447609 69.26611328 266.45581055 C67.41444107 263.38294986 65.66489613 260.26937369 63.9375 257.125 C62.95081661 255.37179716 61.96411101 253.61860609 60.97572327 251.86636353 C59.967044 250.07509539 58.96380879 248.28085301 57.9609375 246.48632812 C55.01388275 241.24679353 51.97821284 236.06055512 48.9375 230.875 C47.7836006 228.8998877 46.62995501 226.9246271 45.4765625 224.94921875 C44.90583008 223.97259277 44.33509766 222.9959668 43.74707031 221.98974609 C41.96351769 218.93756814 40.1807736 215.88491975 38.3984375 212.83203125 C37.80377686 211.81415527 37.20911621 210.7962793 36.59643555 209.74755859 C35.41740988 207.72512699 34.24172813 205.70074185 33.06958008 203.67431641 C30.34209272 198.96521489 27.57836122 194.29499296 24.67578125 189.69140625 C15.44311648 174.8731231 15.44311648 174.8731231 16.3671875 166.390625 C17.57752765 161.81822889 19.44165313 159.14830074 23.2175293 156.3659668 C26.64199001 154.68483512 29.02771225 154.65675391 32.83203125 154.70703125 C34.12431641 154.71669922 35.41660156 154.72636719 36.74804688 154.73632812 C38.1028707 154.76139015 39.45768841 154.78678494 40.8125 154.8125 C42.18683445 154.82755987 43.56118468 154.84124599 44.93554688 154.85351562 C48.29076632 154.88883372 51.64518166 154.93816149 55 155 C44.7112401 128.24604872 33.17342081 105.63784489 13 85 C12.36191406 84.30003906 11.72382813 83.60007812 11.06640625 82.87890625 C1.58350753 72.72016619 -10.44281581 64.45827143 -22.52954102 57.71508789 C-24.04802284 56.85843924 -25.52893818 55.93574093 -27 55 C-27 54.34 -27 53.68 -27 53 C-26.29875 52.64808594 -25.5975 52.29617187 -24.875 51.93359375 C-13.78550728 46.16283871 -5.33925762 39.68161843 -1.375 27.46484375 C0.29211382 21.72420571 0.34209228 16.31292924 0.1875 10.375 C0.17396484 9.37082031 0.16042969 8.36664063 0.14648438 7.33203125 C0.11156152 4.88743136 0.06252748 2.44402266 0 0 Z " fill="#EA570B" transform="translate(359,56)"/>
<path d="M0 0 C4.26454922 1.49835513 5.95302238 4.60212763 8.25 8.25 C11.84701651 13.67446116 15.29883962 17.77230025 21 21 C21.66257812 21.38542969 22.32515625 21.77085937 23.0078125 22.16796875 C33.24024594 27.39745964 44.84854826 27.51136892 56 26 C46.14737481 47.52109257 31.30404077 66.00290755 15 83 C14.21753906 83.82371094 13.43507813 84.64742188 12.62890625 85.49609375 C-2.74393213 101.30737316 -21.44014502 113.98246085 -41 124 C-42.1144751 124.57959473 -42.1144751 124.57959473 -43.25146484 125.17089844 C-59.19870648 133.39084196 -80.77101974 144 -99 144 C-98.9685791 145.13429443 -98.9685791 145.13429443 -98.93652344 146.29150391 C-98.85309415 149.735866 -98.80125376 153.18001507 -98.75 156.625 C-98.71648437 157.81480469 -98.68296875 159.00460937 -98.6484375 160.23046875 C-98.52344983 171.4168653 -98.52344983 171.4168653 -103 176 C-108.55528845 179.87556341 -113.40816593 180.11905862 -120 179 C-124.84414484 176.99402254 -129.1562203 174.30267746 -133.5625 171.5 C-134.82786348 170.722901 -136.0949082 169.9485337 -137.36352539 169.17675781 C-139.97164918 167.58620283 -142.57124525 165.98295213 -145.16503906 164.36914062 C-151.03037101 160.73017136 -156.9891364 157.25100742 -162.9375 153.75 C-165.16197599 152.43055984 -167.38594283 151.11026087 -169.609375 149.7890625 C-174.69701981 146.76932884 -179.79428662 143.76635519 -184.89501953 140.76879883 C-189.27137743 138.1926476 -193.63710065 135.59886085 -198 133 C-199.19447754 132.29206299 -199.19447754 132.29206299 -200.41308594 131.56982422 C-202.63711741 130.24612918 -204.85116723 128.90727462 -207.0625 127.5625 C-208.01805786 126.99716553 -208.01805786 126.99716553 -208.99291992 126.42041016 C-213.32538284 123.75164605 -216.17413155 121.17600559 -219 117 C-219.69921875 113.81640625 -219.69921875 113.81640625 -219.6875 110.5625 C-219.71199219 109.49128906 -219.73648438 108.42007813 -219.76171875 107.31640625 C-218.45116859 101.61047248 -215.23133495 98.52018663 -210.45678711 95.26733398 C-207.383761 93.414889 -204.26985653 91.66513857 -201.125 89.9375 C-199.96139005 89.28471515 -198.79864355 88.63038902 -197.63671875 87.97460938 C-195.253093 86.63024249 -192.86640066 85.29158125 -190.47753906 83.95654297 C-185.28168084 81.03323436 -180.14107459 78.01826948 -175 75 C-168.78168016 71.36357074 -162.55661025 67.7393918 -156.31640625 64.140625 C-155.1989502 63.49617432 -154.08149414 62.85172363 -152.93017578 62.18774414 C-150.70522397 60.90751777 -148.47836611 59.63059764 -146.24951172 58.35717773 C-141.44000192 55.6025873 -136.66849987 52.82669084 -132.00390625 49.83203125 C-119.03892012 41.56804681 -119.03892012 41.56804681 -110.4609375 42.40234375 C-105.8342156 43.52597621 -103.16130435 45.42400606 -100.3659668 49.2175293 C-98.68483512 52.64199001 -98.65675391 55.02771225 -98.70703125 58.83203125 C-98.71669922 60.12431641 -98.72636719 61.41660156 -98.73632812 62.74804688 C-98.76139015 64.1028707 -98.78678494 65.45768841 -98.8125 66.8125 C-98.82755987 68.18683445 -98.84124599 69.56118468 -98.85351562 70.93554688 C-98.88883372 74.29076632 -98.93816149 77.64518166 -99 81 C-72.25139819 70.71329734 -49.62847114 59.17572006 -29 39 C-28.21496094 38.27683594 -27.42992187 37.55367188 -26.62109375 36.80859375 C-15.51257834 26.3359862 -7.12256052 13.40717273 0 0 Z " fill="#EA570B" transform="translate(400,333)"/>
<path d="M0 0 C1.07121094 -0.02449219 2.14242187 -0.04898438 3.24609375 -0.07421875 C8.95202752 1.23633141 12.04231337 4.45616505 15.29516602 9.23071289 C17.14760917 12.30373596 18.89734588 15.41765667 20.625 18.5625 C21.61168339 20.31570284 22.59838899 22.06889391 23.58677673 23.82113647 C24.595456 25.61240461 25.59869121 27.40664699 26.6015625 29.20117188 C29.54861725 34.44070647 32.58428716 39.62694488 35.625 44.8125 C36.7788994 46.7876123 37.93254499 48.7628729 39.0859375 50.73828125 C39.65666992 51.71490723 40.22740234 52.6915332 40.81542969 53.69775391 C42.59898231 56.74993186 44.3817264 59.80258025 46.1640625 62.85546875 C46.75872314 63.87334473 47.35338379 64.8912207 47.96606445 65.93994141 C49.14509012 67.96237301 50.32077187 69.98675815 51.49291992 72.01318359 C54.22040728 76.72228511 56.98413878 81.39250704 59.88671875 85.99609375 C69.11938352 100.8143769 69.11938352 100.8143769 68.1953125 109.296875 C66.99653633 113.82558499 65.13947162 116.4931759 61.4375 119.296875 C57.66334564 121.12241705 54.39140346 121.24546549 50.25 121.375 C49.50943359 121.40916016 48.76886719 121.44332031 48.00585938 121.47851562 C46.19191836 121.56043554 44.37723647 121.62565822 42.5625 121.6875 C49.55088878 134.70776625 57.66951965 145.89562975 67.84765625 156.6640625 C69.5625 158.6875 69.5625 158.6875 70.5625 161.6875 C71.8785123 162.38773843 73.21407158 163.05191914 74.5625 163.6875 C75.95703125 165.02734375 75.95703125 165.02734375 77.375 166.625 C85.84071204 175.30731875 96.47926946 181.95238553 106.99023438 187.87060547 C108.54430702 188.75906429 110.05843169 189.71678924 111.5625 190.6875 C111.5625 191.3475 111.5625 192.0075 111.5625 192.6875 C110.86125 193.03941406 110.16 193.39132812 109.4375 193.75390625 C98.33608709 199.53086433 89.88556063 206.01618369 85.9375 218.25390625 C84.31776791 223.83138727 84.2169642 229.04216716 84.375 234.8125 C84.38853516 235.76898438 84.40207031 236.72546875 84.41601562 237.7109375 C84.45090778 240.0370811 84.49991661 242.3619653 84.5625 244.6875 C79.37815549 244.16599789 75.57330744 241.56782931 71.25 238.875 C70.46109375 238.38725098 69.6721875 237.89950195 68.859375 237.39697266 C57.7611735 230.42508247 47.30008674 222.62047885 37.70703125 213.6796875 C35.77032568 211.88056211 33.78101264 210.19040804 31.75 208.5 C14.84589263 193.66647607 1.67056841 175.09434176 -9.4375 155.6875 C-9.99993408 154.70934326 -9.99993408 154.70934326 -10.57373047 153.71142578 C-14.68546253 146.48750902 -18.24246521 139.11160879 -21.4375 131.4375 C-21.89237793 130.34586548 -21.89237793 130.34586548 -22.35644531 129.23217773 C-23.56420516 126.23796935 -24.4375 123.94646554 -24.4375 120.6875 C-25.98074951 120.7189209 -25.98074951 120.7189209 -27.55517578 120.75097656 C-31.39048213 120.82364994 -35.22572822 120.86939821 -39.06152344 120.90722656 C-40.71820325 120.92728009 -42.37481282 120.95453029 -44.03125 120.98925781 C-46.41944758 121.03805512 -48.80670547 121.06053064 -51.1953125 121.078125 C-52.29723434 121.10909271 -52.29723434 121.10909271 -53.42141724 121.14068604 C-58.5996044 121.1429201 -61.51557288 120.04546647 -65.4375 116.6875 C-68.8314242 112.23048959 -69.15776074 108.50164749 -69.00390625 103.02392578 C-67.91895978 96.63302992 -64.35688501 91.50084755 -60.9375 86.125 C-60.160401 84.85963652 -59.3860337 83.5925918 -58.61425781 82.32397461 C-57.02370283 79.71585082 -55.42045213 77.11625475 -53.80664062 74.52246094 C-50.16767136 68.65712899 -46.68850742 62.6983636 -43.1875 56.75 C-41.86805984 54.52552401 -40.54776087 52.30155717 -39.2265625 50.078125 C-36.20682884 44.99048019 -33.20385519 39.89321338 -30.20629883 34.79248047 C-27.6301476 30.41612257 -25.03636085 26.05039935 -22.4375 21.6875 C-21.96554199 20.89118164 -21.49358398 20.09486328 -21.00732422 19.27441406 C-19.68362918 17.05038259 -18.34477462 14.83633277 -17 12.625 C-16.62311035 11.98796143 -16.2462207 11.35092285 -15.85791016 10.69458008 C-11.8965885 4.26378346 -7.95210492 -0.02863903 0 0 Z " fill="#EA570B" transform="translate(68.4375,210.3125)"/>
<path d="M0 0 C1.1088707 -0.00990463 2.21774139 -0.01980927 3.36021423 -0.03001404 C5.17055649 -0.02326157 5.17055649 -0.02326157 7.01747131 -0.01637268 C8.296035 -0.02323593 9.57459869 -0.03009918 10.89190674 -0.03717041 C14.39197481 -0.05509243 17.89179204 -0.0539353 21.39189219 -0.04822803 C24.31682719 -0.04513467 27.2417141 -0.05123027 30.16664225 -0.05726677 C37.06845679 -0.07130732 43.97014753 -0.06975476 50.8719635 -0.05836487 C57.98562094 -0.0468846 65.09890134 -0.06095856 72.2125091 -0.08776134 C78.32648047 -0.1099328 84.44033362 -0.11655248 90.55434233 -0.11068493 C94.2031387 -0.1073175 97.8516934 -0.10971587 101.50045586 -0.12693596 C105.57017188 -0.14530495 109.63915637 -0.13120332 113.70887756 -0.11402893 C115.51618347 -0.12853088 115.51618347 -0.12853088 117.36000061 -0.14332581 C123.66530589 -0.08754838 127.68100034 0.05650601 132.4278717 4.38768005 C136.48417569 9.61027863 136.20184714 15.04108148 135.4278717 21.38768005 C133.24027367 26.00594257 130.92699743 28.10479822 126.4278717 30.38768005 C123.76789951 30.76799679 123.76789951 30.76799679 120.85574341 30.77536011 C119.19243736 30.79021706 119.19243736 30.79021706 117.49552917 30.80537415 C116.28863434 30.8008725 115.0817395 30.79637085 113.83827209 30.79173279 C112.5597084 30.79859604 111.28114471 30.80545929 109.96383667 30.81253052 C106.4637686 30.83045254 102.96395136 30.82929541 99.46385121 30.82358813 C96.53891622 30.82049478 93.61402931 30.82659037 90.68910116 30.83262688 C83.78728662 30.84666743 76.88559587 30.84511487 69.98377991 30.83372498 C62.87012246 30.8222447 55.75684207 30.83631867 48.64323431 30.86312145 C42.52926294 30.88529291 36.41540979 30.89191258 30.30140108 30.88604504 C26.65260471 30.88267761 23.00405001 30.88507597 19.35528755 30.90229607 C15.28557153 30.92066505 11.21658704 30.90656342 7.14686584 30.88938904 C5.33955994 30.90389099 5.33955994 30.90389099 3.4957428 30.91868591 C-2.80956248 30.86290849 -6.82525693 30.71885409 -11.5721283 26.38768005 C-15.62843228 21.16508148 -15.34610373 15.73427863 -14.5721283 9.38768005 C-11.49275947 2.8867903 -7.15706033 0.01809646 0 0 Z " fill="#EA580B" transform="translate(195.57212829589844,300.61231994628906)"/>
<path d="M0 0 C1.1088707 -0.00990463 2.21774139 -0.01980927 3.36021423 -0.03001404 C5.17055649 -0.02326157 5.17055649 -0.02326157 7.01747131 -0.01637268 C8.296035 -0.02323593 9.57459869 -0.03009918 10.89190674 -0.03717041 C14.39197481 -0.05509243 17.89179204 -0.0539353 21.39189219 -0.04822803 C24.31682719 -0.04513467 27.2417141 -0.05123027 30.16664225 -0.05726677 C37.06845679 -0.07130732 43.97014753 -0.06975476 50.8719635 -0.05836487 C57.98562094 -0.0468846 65.09890134 -0.06095856 72.2125091 -0.08776134 C78.32648047 -0.1099328 84.44033362 -0.11655248 90.55434233 -0.11068493 C94.2031387 -0.1073175 97.8516934 -0.10971587 101.50045586 -0.12693596 C105.57017188 -0.14530495 109.63915637 -0.13120332 113.70887756 -0.11402893 C115.51618347 -0.12853088 115.51618347 -0.12853088 117.36000061 -0.14332581 C123.66530589 -0.08754838 127.68100034 0.05650601 132.4278717 4.38768005 C136.48417569 9.61027863 136.20184714 15.04108148 135.4278717 21.38768005 C133.24027367 26.00594257 130.92699743 28.10479822 126.4278717 30.38768005 C123.76789951 30.76799679 123.76789951 30.76799679 120.85574341 30.77536011 C119.19243736 30.79021706 119.19243736 30.79021706 117.49552917 30.80537415 C116.28863434 30.8008725 115.0817395 30.79637085 113.83827209 30.79173279 C112.5597084 30.79859604 111.28114471 30.80545929 109.96383667 30.81253052 C106.4637686 30.83045254 102.96395136 30.82929541 99.46385121 30.82358813 C96.53891622 30.82049478 93.61402931 30.82659037 90.68910116 30.83262688 C83.78728662 30.84666743 76.88559587 30.84511487 69.98377991 30.83372498 C62.87012246 30.8222447 55.75684207 30.83631867 48.64323431 30.86312145 C42.52926294 30.88529291 36.41540979 30.89191258 30.30140108 30.88604504 C26.65260471 30.88267761 23.00405001 30.88507597 19.35528755 30.90229607 C15.28557153 30.92066505 11.21658704 30.90656342 7.14686584 30.88938904 C5.33955994 30.90389099 5.33955994 30.90389099 3.4957428 30.91868591 C-2.80956248 30.86290849 -6.82525693 30.71885409 -11.5721283 26.38768005 C-15.62843228 21.16508148 -15.34610373 15.73427863 -14.5721283 9.38768005 C-11.49275947 2.8867903 -7.15706033 0.01809646 0 0 Z " fill="#EA580B" transform="translate(195.57212829589844,240.61231994628906)"/>
<path d="M0 0 C1.1088707 -0.00990463 2.21774139 -0.01980927 3.36021423 -0.03001404 C5.17055649 -0.02326157 5.17055649 -0.02326157 7.01747131 -0.01637268 C8.296035 -0.02323593 9.57459869 -0.03009918 10.89190674 -0.03717041 C14.39197481 -0.05509243 17.89179204 -0.0539353 21.39189219 -0.04822803 C24.31682719 -0.04513467 27.2417141 -0.05123027 30.16664225 -0.05726677 C37.06845679 -0.07130732 43.97014753 -0.06975476 50.8719635 -0.05836487 C57.98562094 -0.0468846 65.09890134 -0.06095856 72.2125091 -0.08776134 C78.32648047 -0.1099328 84.44033362 -0.11655248 90.55434233 -0.11068493 C94.2031387 -0.1073175 97.8516934 -0.10971587 101.50045586 -0.12693596 C105.57017188 -0.14530495 109.63915637 -0.13120332 113.70887756 -0.11402893 C115.51618347 -0.12853088 115.51618347 -0.12853088 117.36000061 -0.14332581 C123.66530589 -0.08754838 127.68100034 0.05650601 132.4278717 4.38768005 C136.48417569 9.61027863 136.20184714 15.04108148 135.4278717 21.38768005 C133.24027367 26.00594257 130.92699743 28.10479822 126.4278717 30.38768005 C123.76789951 30.76799679 123.76789951 30.76799679 120.85574341 30.77536011 C119.19243736 30.79021706 119.19243736 30.79021706 117.49552917 30.80537415 C116.28863434 30.8008725 115.0817395 30.79637085 113.83827209 30.79173279 C112.5597084 30.79859604 111.28114471 30.80545929 109.96383667 30.81253052 C106.4637686 30.83045254 102.96395136 30.82929541 99.46385121 30.82358813 C96.53891622 30.82049478 93.61402931 30.82659037 90.68910116 30.83262688 C83.78728662 30.84666743 76.88559587 30.84511487 69.98377991 30.83372498 C62.87012246 30.8222447 55.75684207 30.83631867 48.64323431 30.86312145 C42.52926294 30.88529291 36.41540979 30.89191258 30.30140108 30.88604504 C26.65260471 30.88267761 23.00405001 30.88507597 19.35528755 30.90229607 C15.28557153 30.92066505 11.21658704 30.90656342 7.14686584 30.88938904 C5.33955994 30.90389099 5.33955994 30.90389099 3.4957428 30.91868591 C-2.80956248 30.86290849 -6.82525693 30.71885409 -11.5721283 26.38768005 C-15.62843228 21.16508148 -15.34610373 15.73427863 -14.5721283 9.38768005 C-11.49275947 2.8867903 -7.15706033 0.01809646 0 0 Z " fill="#EA580B" transform="translate(195.57212829589844,180.61231994628906)"/>
</svg>
