<?xml version="1.0" encoding="UTF-8"?>
<svg version="1.1" xmlns="http://www.w3.org/2000/svg" width="512" height="512">
<path d="M0 0 C1.09508881 -0.00145523 2.19017761 -0.00291046 3.31845093 -0.00440979 C5.61597373 -0.00276123 7.9135088 0.00868176 10.2109375 0.02954102 C13.70881407 0.05857612 17.20517868 0.05011016 20.703125 0.03710938 C22.94792396 0.04334587 25.19271818 0.05173612 27.4375 0.0625 C28.98940536 0.05809654 28.98940536 0.05809654 30.57266235 0.05360413 C40.66799666 0.18362175 48.61596461 2.53428228 56.0859375 9.49609375 C61.63156431 16.50109603 62.37906883 22.86867639 62.28125 31.48828125 C62.2784201 32.4342215 62.27559021 33.38016174 62.27267456 34.35476685 C62.26152682 37.36034069 62.23643215 40.36561077 62.2109375 43.37109375 C62.20090071 45.41536026 62.19177609 47.45963147 62.18359375 49.50390625 C62.16160517 54.50141819 62.12711259 59.49870455 62.0859375 64.49609375 C62.75577809 64.49457487 63.42561868 64.49305599 64.11575747 64.49149108 C103.81427476 64.40198247 143.51277904 64.33334939 183.21137682 64.29183243 C187.97783211 64.28682959 192.7442872 64.28165231 197.51074219 64.27636719 C198.4596592 64.27531795 199.40857622 64.2742687 200.38624829 64.27318767 C215.75180894 64.25578154 231.11730974 64.22424269 246.48283488 64.18748257 C262.24880278 64.15007895 278.01473934 64.12785912 293.7807498 64.11973977 C303.50955893 64.1142508 313.2381989 64.09691316 322.96695596 64.06442788 C329.63796281 64.04328716 336.30888217 64.03689271 342.97992009 64.04208824 C346.82903369 64.04465071 350.67785163 64.04071741 354.52691269 64.01927185 C358.70193227 63.99618027 362.87632266 64.00414488 367.0513916 64.01507568 C368.26541043 64.00342432 369.47942925 63.99177295 370.73023653 63.97976851 C377.6486241 64.02880466 382.23227233 64.70550913 388.0859375 68.49609375 C392.25508407 73.73425226 393.63321174 77.81934797 393.0859375 84.49609375 C391.27601138 89.76848722 388.85141368 93.44130132 384.0859375 96.49609375 C380.52870887 97.68183663 377.70817206 97.61599568 373.95239258 97.60961914 C373.23019028 97.60976517 372.50798798 97.60991119 371.76390076 97.61006165 C369.37772616 97.6093652 366.99162971 97.60158535 364.60546875 97.59375 C362.9506586 97.59188487 361.29584789 97.59046141 359.64103699 97.58946228 C355.28612747 97.5856446 350.93125132 97.5758207 346.57635498 97.5647583 C342.13228812 97.55452808 337.68821587 97.5499612 333.24414062 97.54492188 C324.52472427 97.53419777 315.80533504 97.51713032 307.0859375 97.49609375 C307.0859375 100.79609375 307.0859375 104.09609375 307.0859375 107.49609375 C307.89675781 107.4496875 308.70757812 107.40328125 309.54296875 107.35546875 C320.71874215 106.99118277 329.35127271 109.18234264 338.015625 116.44921875 C347.23460391 125.56383186 350.37290662 135.17850248 350.49606621 147.88095689 C350.50393131 150.39322218 350.4971243 152.90521627 350.48999023 155.41748047 C350.49569896 157.23345356 350.50266516 159.04942307 350.51078796 160.86538696 C350.52867979 165.7787111 350.52755837 170.69185626 350.52184558 175.60520315 C350.5187477 179.71536381 350.5248529 183.82549038 350.53088433 187.93564618 C350.54491515 197.63665122 350.54338051 207.33756817 350.53198242 217.03857422 C350.52050488 227.02757919 350.5345741 237.01631556 350.5613789 247.00528514 C350.58357191 255.59921715 350.59016509 264.19306506 350.58430248 272.78702366 C350.58094005 277.91198417 350.58330035 283.03677257 350.60055351 288.16170883 C350.61607783 292.98323683 350.61200644 297.80436854 350.59324837 302.6258812 C350.58957752 304.38863044 350.59262676 306.15140941 350.60313416 307.91413116 C350.67908633 321.71673881 349.20298665 333.24363476 339.0859375 343.49609375 C326.91304226 354.01183854 314.52129176 353.93935526 299.21508789 353.90014648 C297.20192589 353.90585519 295.18876712 353.91282138 293.1756134 353.92094421 C287.72931272 353.93883478 282.28317352 353.93771501 276.83685231 353.93200183 C272.28176899 353.92890422 267.72671642 353.93500876 263.17163748 353.94104058 C252.42209735 353.95507056 241.67263673 353.95353704 230.9230957 353.94213867 C219.85083282 353.93065721 208.77881215 353.9447372 197.70658118 353.97153515 C188.18270227 353.99371857 178.65889925 354.00032361 169.13499635 353.99445873 C163.45449707 353.99109451 157.77415305 353.99346885 152.09367561 354.01070976 C146.75095499 354.02621902 141.40859224 354.02217907 136.06588554 354.00340462 C134.11124106 353.99972986 132.15656983 354.00279454 130.20195007 354.01329041 C115.28515556 354.08724231 103.4994797 352.77858896 92.40234375 341.8359375 C85.59043238 334.37850834 82.936183 326.93679855 82.93876648 316.94515991 C82.93508979 316.18109003 82.9314131 315.41702014 82.927625 314.62979662 C82.91660511 312.0674813 82.91274718 309.50520655 82.90893555 306.94287109 C82.90266956 305.10631176 82.89602264 303.2697537 82.88902283 301.43319702 C82.86799411 295.39948406 82.85762076 289.36577088 82.84765625 283.33203125 C82.84360809 281.2532716 82.83949115 279.17451209 82.83530617 277.09575272 C82.81625621 267.32792352 82.80202541 257.56010187 82.7936942 247.79225767 C82.78392561 236.52578807 82.75761506 225.25951514 82.71719331 213.99311483 C82.68700624 205.27957252 82.67222281 196.5660865 82.66891319 187.85249293 C82.66656545 182.65089542 82.65764093 177.44950807 82.63245201 172.24796677 C82.60912136 167.3510318 82.60495816 162.45444461 82.61521339 157.55746841 C82.61570767 155.7652648 82.60941934 153.97304378 82.59565735 152.18089294 C82.49196412 137.87079997 84.50812492 127.4038222 94.7109375 116.80859375 C101.69989504 110.33733677 109.90251805 107.33105658 119.3359375 107.43359375 C120.41359375 107.44261719 121.49125 107.45164062 122.6015625 107.4609375 C123.42140625 107.47253906 124.24125 107.48414063 125.0859375 107.49609375 C125.0859375 104.19609375 125.0859375 100.89609375 125.0859375 97.49609375 C104.2959375 97.49609375 83.5059375 97.49609375 62.0859375 97.49609375 C62.10688477 107.80915771 62.12783203 118.12222168 62.14941406 128.74780273 C62.21361464 161.74613374 62.25810763 194.74446499 62.29019882 227.74284222 C62.29520164 232.86851932 62.30037893 237.99419623 62.30566406 243.11987305 C62.3067133 244.1403025 62.30776255 245.16073196 62.30884358 246.21208353 C62.32624854 262.73447462 62.35778675 279.25681005 62.39454868 295.77916812 C62.43195554 312.73278415 62.45417282 329.68637102 62.46229148 346.64002663 C62.46777977 357.10124846 62.48511378 367.56231293 62.51760337 378.02348632 C62.53874808 385.19722502 62.54513763 392.37088236 62.53994301 399.54464995 C62.53738117 403.68349245 62.54130678 407.82205997 62.5627594 411.96085358 C62.58227136 415.75298695 62.58317772 419.54466126 62.56953308 423.33681608 C62.56705145 425.35229096 62.58426172 427.3677607 62.60226274 429.38315672 C62.5430697 438.37071096 60.89145267 444.32789978 55.8984375 451.74609375 C49.57915551 457.92494725 42.786553 460.5728482 34.01123047 460.6730957 C33.02605438 460.68593094 32.0408783 460.69876617 31.02584839 460.71199036 C29.97059967 460.71937729 28.91535095 460.72676422 27.828125 460.734375 C26.72928986 460.74244675 25.63045471 460.75051849 24.49832153 460.75883484 C22.17337611 460.77264964 19.84841063 460.7833834 17.5234375 460.79125977 C15.15911873 460.80276378 12.79482561 460.82319031 10.43066406 460.8527832 C7.00047288 460.89569655 3.57105215 460.91166325 0.140625 460.921875 C-0.90247833 460.93938309 -1.94558167 460.95689117 -3.02029419 460.97492981 C-12.11047809 460.94844416 -20.4526063 459.1642881 -27.3515625 452.93359375 C-34.94114187 444.25005471 -35.49522206 434.36048166 -35.39508057 423.26557922 C-35.39682818 421.85365035 -35.40033656 420.44172276 -35.40543723 419.02980202 C-35.41432399 415.17795065 -35.39846131 411.32654949 -35.37832499 407.47475541 C-35.36097273 403.31062989 -35.36690216 399.14652762 -35.36993408 394.9823761 C-35.37202655 387.77700652 -35.35952833 380.57178236 -35.33698273 373.36644936 C-35.30440737 362.94890659 -35.29405006 352.53143379 -35.28903076 342.11384561 C-35.28028678 325.21005322 -35.25369557 308.30633826 -35.21582031 291.40258789 C-35.17907699 274.98690171 -35.15077659 258.5712366 -35.13378906 242.15551758 C-35.13273817 241.14282904 -35.13168727 240.1301405 -35.13060454 239.08676443 C-35.1253842 234.00615732 -35.12032941 228.92555005 -35.11535692 223.84494269 C-35.07392283 181.72860587 -35.00349886 139.61235425 -34.9140625 97.49609375 C-35.48850098 97.5118042 -36.06293945 97.52751465 -36.65478516 97.54370117 C-39.28277559 97.60644888 -41.91060787 97.64520881 -44.5390625 97.68359375 C-45.44269531 97.70873047 -46.34632812 97.73386719 -47.27734375 97.75976562 C-52.60426633 97.81808959 -56.3195223 97.51351122 -60.9140625 94.49609375 C-64.79855047 90.39580089 -66.65476858 86.7865234 -67.2890625 81.18359375 C-66.82241488 76.59489215 -65.58620823 73.25507551 -62.9140625 69.49609375 C-58.53449632 66.01031658 -55.03617321 64.36104603 -49.46484375 64.3984375 C-48.61728516 64.40166016 -47.76972656 64.40488281 -46.89648438 64.40820312 C-46.01541016 64.41658203 -45.13433594 64.42496094 -44.2265625 64.43359375 C-42.88754883 64.44036133 -42.88754883 64.44036133 -41.52148438 64.44726562 C-39.31894263 64.45904392 -37.11653651 64.47549211 -34.9140625 64.49609375 C-34.93500977 63.31168701 -34.95595703 62.12728027 -34.97753906 60.90698242 C-35.0505492 56.46586444 -35.09608173 52.02479826 -35.13378906 47.58325195 C-35.15376669 45.66974941 -35.18095849 43.75630683 -35.21582031 41.84301758 C-35.64961039 17.40405 -35.64961039 17.40405 -27.3515625 8.05859375 C-19.42495844 1.09051241 -10.21686645 -0.11137304 0 0 Z M158.0859375 97.49609375 C158.0859375 100.79609375 158.0859375 104.09609375 158.0859375 107.49609375 C196.6959375 107.49609375 235.3059375 107.49609375 275.0859375 107.49609375 C275.0859375 104.19609375 275.0859375 100.89609375 275.0859375 97.49609375 C236.4759375 97.49609375 197.8659375 97.49609375 158.0859375 97.49609375 Z M188.08789062 179.82080078 C185.1429592 182.28520559 182.11918811 184.64198111 179.0859375 186.99609375 C173.87737665 191.07386347 168.68515822 195.17166113 163.5234375 199.30859375 C162.85634766 199.83582031 162.18925781 200.36304688 161.50195312 200.90625 C153.09923831 207.67629083 148.29535968 214.47334757 147.0859375 225.49609375 C146.93913377 229.03420494 146.92207085 232.56852183 146.91796875 236.109375 C146.91464035 237.11896774 146.91131195 238.12856049 146.90788269 239.16874695 C146.90283742 241.29763333 146.90047362 243.42652757 146.90063477 245.55541992 C146.89845159 248.78773227 146.88027912 252.01970118 146.86132812 255.25195312 C146.85839292 257.32942593 146.85640898 259.40690034 146.85546875 261.484375 C146.84828323 262.43887039 146.84109772 263.39336578 146.83369446 264.37678528 C146.86965308 275.10169521 148.26070494 284.08979061 155.65234375 292.21875 C162.43934013 298.62781618 170.43974263 299.94971548 179.48608398 299.90014648 C180.37841736 299.90700974 181.27075073 299.91387299 182.19012451 299.92094421 C185.11259291 299.93910644 188.03451904 299.93538996 190.95703125 299.9296875 C193.00529655 299.93425427 195.05356032 299.93956132 197.1018219 299.9455719 C201.38443242 299.95448218 205.66685624 299.95210348 209.94946289 299.94213867 C215.4178356 299.93065007 220.88556244 299.9508698 226.35385036 299.98005581 C230.58083642 299.99846508 234.80766902 299.99811595 239.03468513 299.99241829 C241.04996713 299.99226566 243.06525991 299.99826113 245.08050346 300.01070976 C263.25257473 300.17354542 263.25257473 300.17354542 278.6171875 291.2109375 C283.1367192 285.93414384 285.19637659 279.74078508 285.26293945 272.88232422 C285.27577469 271.73037567 285.28860992 270.57842712 285.30183411 269.39157104 C285.30922104 268.14473541 285.31660797 266.89789978 285.32421875 265.61328125 C285.33632637 263.68731613 285.33632637 263.68731613 285.34867859 261.72244263 C285.36369661 259.00050998 285.37353704 256.27860331 285.38110352 253.55664062 C285.39212716 250.09005927 285.42648238 246.62412706 285.46627522 243.15777397 C285.49891026 239.83047074 285.50323546 236.50323204 285.51171875 233.17578125 C285.53798088 231.32374588 285.53798088 231.32374588 285.56477356 229.43429565 C285.53910424 219.1610005 283.22241997 211.92773355 276.0859375 204.49609375 C274.00696118 202.7323609 271.94670489 201.06781138 269.7734375 199.43359375 C268.52238182 198.47272711 267.27242438 197.51042925 266.0234375 196.546875 C265.37632812 196.04881348 264.72921875 195.55075195 264.0625 195.03759766 C261.42481818 192.98049254 258.83735978 190.86551599 256.25146484 188.74389648 C252.87786783 185.97614786 249.48322587 183.23467604 246.0859375 180.49609375 C245.35342773 179.90376953 244.62091797 179.31144531 243.86621094 178.70117188 C241.63814701 176.9098509 239.39566677 175.13828635 237.1484375 173.37109375 C236.13849731 172.55439209 236.13849731 172.55439209 235.1081543 171.72119141 C229.01347639 166.98113597 222.07132221 163.71087058 214.15234375 164.17578125 C203.41043494 165.84087865 196.09592867 173.03882877 188.08789062 179.82080078 Z " fill="#EA570B" transform="translate(92.9140625,25.50390625)"/>
</svg>
